<mxfile host="app.diagrams.net" modified="2024-02-17T15:58:38.254Z" agent="Mozilla/5.0 (Macintosh; Intel Mac OS X 10_15_7) AppleWebKit/537.36 (KHTML, like Gecko) Chrome/121.0.0.0 Safari/537.36" etag="luBwfeNmcbmFqjFLFLG7" version="23.1.1" type="github">
  <diagram id="prtHgNgQTEPvFCAcTncT" name="Page-1">
    <mxGraphModel dx="989" dy="525" grid="1" gridSize="10" guides="1" tooltips="1" connect="1" arrows="1" fold="1" page="1" pageScale="1" pageWidth="827" pageHeight="1169" math="0" shadow="0">
      <root>
        <mxCell id="0" />
        <mxCell id="1" parent="0" />
        <mxCell id="OZoNvrv32u-H_DVouSun-1" value="查询授信审批结论" style="swimlane;childLayout=stackLayout;resizeParent=1;resizeParentMax=0;startSize=20;html=1;labelBackgroundColor=none;fillColor=#B2C9AB;strokeColor=#6666FF;fontColor=#46495D;" vertex="1" parent="1">
          <mxGeometry x="234.00000000000045" y="120" width="1042" height="1530" as="geometry" />
        </mxCell>
        <mxCell id="OZoNvrv32u-H_DVouSun-2" value="xyf-api-gateway" style="swimlane;startSize=20;html=1;labelBackgroundColor=none;fillColor=#B2C9AB;strokeColor=#6666FF;fontColor=#46495D;" vertex="1" parent="OZoNvrv32u-H_DVouSun-1">
          <mxGeometry y="20" width="180" height="1510" as="geometry" />
        </mxCell>
        <mxCell id="OZoNvrv32u-H_DVouSun-7" value="" style="edgeStyle=orthogonalEdgeStyle;rounded=1;orthogonalLoop=1;jettySize=auto;html=1;strokeColor=#6666FF;fontColor=#46495D;fillColor=#B2C9AB;curved=0;" edge="1" parent="OZoNvrv32u-H_DVouSun-2" source="OZoNvrv32u-H_DVouSun-5" target="OZoNvrv32u-H_DVouSun-6">
          <mxGeometry relative="1" as="geometry" />
        </mxCell>
        <mxCell id="OZoNvrv32u-H_DVouSun-5" value="读取配置，判断该渠道、该单号是否走新流程(二次给额流程)" style="rounded=0;whiteSpace=wrap;html=1;strokeColor=#6666FF;fontColor=#46495D;fillColor=#B2C9AB;" vertex="1" parent="OZoNvrv32u-H_DVouSun-2">
          <mxGeometry x="29.999999999999545" y="50" width="120" height="60" as="geometry" />
        </mxCell>
        <mxCell id="OZoNvrv32u-H_DVouSun-6" value="请求查询授信审批结论" style="rounded=0;whiteSpace=wrap;html=1;strokeColor=#6666FF;fontColor=#46495D;fillColor=#B2C9AB;" vertex="1" parent="OZoNvrv32u-H_DVouSun-2">
          <mxGeometry x="29.999999999999545" y="170" width="120" height="60" as="geometry" />
        </mxCell>
        <mxCell id="OZoNvrv32u-H_DVouSun-42" value="返回相应的审批结论数据" style="whiteSpace=wrap;html=1;fillColor=#d5e8d4;strokeColor=#82b366;rounded=0;" vertex="1" parent="OZoNvrv32u-H_DVouSun-2">
          <mxGeometry x="26" y="530" width="120" height="60" as="geometry" />
        </mxCell>
        <mxCell id="OZoNvrv32u-H_DVouSun-20" value="返回相应的审批结论数据" style="whiteSpace=wrap;html=1;fillColor=#B2C9AB;strokeColor=#6666FF;fontColor=#46495D;rounded=0;" vertex="1" parent="OZoNvrv32u-H_DVouSun-2">
          <mxGeometry x="36" y="280" width="120" height="60" as="geometry" />
        </mxCell>
        <mxCell id="OZoNvrv32u-H_DVouSun-64" value="返回审批中" style="whiteSpace=wrap;html=1;fillColor=#d5e8d4;strokeColor=#82b366;rounded=0;" vertex="1" parent="OZoNvrv32u-H_DVouSun-2">
          <mxGeometry x="26" y="980" width="120" height="60" as="geometry" />
        </mxCell>
        <mxCell id="OZoNvrv32u-H_DVouSun-69" value="返回审批拒绝" style="whiteSpace=wrap;html=1;fillColor=#d5e8d4;strokeColor=#82b366;rounded=0;" vertex="1" parent="OZoNvrv32u-H_DVouSun-2">
          <mxGeometry x="30" y="1100" width="120" height="60" as="geometry" />
        </mxCell>
        <mxCell id="OZoNvrv32u-H_DVouSun-75" value="返回审批拒绝" style="whiteSpace=wrap;html=1;fillColor=#d5e8d4;strokeColor=#82b366;rounded=0;" vertex="1" parent="OZoNvrv32u-H_DVouSun-2">
          <mxGeometry x="26" y="1310" width="120" height="60" as="geometry" />
        </mxCell>
        <mxCell id="OZoNvrv32u-H_DVouSun-79" value="返回授信成功" style="whiteSpace=wrap;html=1;fillColor=#d5e8d4;strokeColor=#82b366;rounded=0;" vertex="1" parent="OZoNvrv32u-H_DVouSun-2">
          <mxGeometry x="26" y="1420" width="120" height="60" as="geometry" />
        </mxCell>
        <mxCell id="OZoNvrv32u-H_DVouSun-3" value="openplatformcore" style="swimlane;startSize=20;html=1;labelBackgroundColor=none;fillColor=#B2C9AB;strokeColor=#6666FF;fontColor=#46495D;" vertex="1" parent="OZoNvrv32u-H_DVouSun-1">
          <mxGeometry x="180" y="20" width="502" height="1510" as="geometry" />
        </mxCell>
        <mxCell id="OZoNvrv32u-H_DVouSun-12" value="" style="edgeStyle=orthogonalEdgeStyle;shape=connector;curved=0;rounded=1;orthogonalLoop=1;jettySize=auto;html=1;labelBackgroundColor=default;strokeColor=#6666FF;align=center;verticalAlign=middle;fontFamily=Helvetica;fontSize=11;fontColor=#46495D;endArrow=classic;fillColor=#B2C9AB;entryX=0.5;entryY=0;entryDx=0;entryDy=0;" edge="1" parent="OZoNvrv32u-H_DVouSun-3" source="OZoNvrv32u-H_DVouSun-9" target="OZoNvrv32u-H_DVouSun-14">
          <mxGeometry relative="1" as="geometry">
            <mxPoint x="155.99999999999955" y="160.00000000000023" as="targetPoint" />
          </mxGeometry>
        </mxCell>
        <mxCell id="OZoNvrv32u-H_DVouSun-9" value="查询授信审批结论接口" style="rounded=0;whiteSpace=wrap;html=1;strokeColor=#6666FF;fontColor=#46495D;fillColor=#B2C9AB;" vertex="1" parent="OZoNvrv32u-H_DVouSun-3">
          <mxGeometry x="95.99999999999955" y="50" width="120" height="60" as="geometry" />
        </mxCell>
        <mxCell id="OZoNvrv32u-H_DVouSun-30" value="false" style="edgeStyle=orthogonalEdgeStyle;shape=connector;curved=0;rounded=1;orthogonalLoop=1;jettySize=auto;html=1;labelBackgroundColor=default;strokeColor=#6666FF;align=center;verticalAlign=middle;fontFamily=Helvetica;fontSize=11;fontColor=#46495D;endArrow=classic;fillColor=#B2C9AB;" edge="1" parent="OZoNvrv32u-H_DVouSun-3" source="OZoNvrv32u-H_DVouSun-13" target="OZoNvrv32u-H_DVouSun-29">
          <mxGeometry relative="1" as="geometry" />
        </mxCell>
        <mxCell id="OZoNvrv32u-H_DVouSun-13" value="授信状态已经是拒绝或者(已经是失效且为新流程)" style="rhombus;whiteSpace=wrap;html=1;fillColor=#B2C9AB;strokeColor=#6666FF;fontColor=#46495D;rounded=0;" vertex="1" parent="OZoNvrv32u-H_DVouSun-3">
          <mxGeometry x="64" y="270" width="184" height="80" as="geometry" />
        </mxCell>
        <mxCell id="OZoNvrv32u-H_DVouSun-16" style="edgeStyle=orthogonalEdgeStyle;shape=connector;curved=0;rounded=1;orthogonalLoop=1;jettySize=auto;html=1;entryX=0.5;entryY=0;entryDx=0;entryDy=0;labelBackgroundColor=default;strokeColor=#6666FF;align=center;verticalAlign=middle;fontFamily=Helvetica;fontSize=11;fontColor=#46495D;endArrow=classic;fillColor=#B2C9AB;" edge="1" parent="OZoNvrv32u-H_DVouSun-3" source="OZoNvrv32u-H_DVouSun-14" target="OZoNvrv32u-H_DVouSun-13">
          <mxGeometry relative="1" as="geometry" />
        </mxCell>
        <mxCell id="OZoNvrv32u-H_DVouSun-14" value="查询cash_out_apply表授信状态数据" style="rounded=0;whiteSpace=wrap;html=1;strokeColor=#6666FF;fontColor=#46495D;fillColor=#B2C9AB;" vertex="1" parent="OZoNvrv32u-H_DVouSun-3">
          <mxGeometry x="95.99999999999955" y="170" width="120" height="60" as="geometry" />
        </mxCell>
        <mxCell id="OZoNvrv32u-H_DVouSun-25" value="部分渠道不支持授信状态的终态变更&lt;br&gt;1、授信拒绝、过期由平台保障不变更&lt;br&gt;2、授信成功由gateway保障不变更" style="whiteSpace=wrap;html=1;fillColor=#f8cecc;strokeColor=#b85450;rounded=0;align=left;" vertex="1" parent="OZoNvrv32u-H_DVouSun-3">
          <mxGeometry x="240" y="100" width="196" height="90" as="geometry" />
        </mxCell>
        <mxCell id="OZoNvrv32u-H_DVouSun-28" value="" style="shape=singleArrow;direction=south;whiteSpace=wrap;html=1;strokeColor=#788AA3;fontFamily=Helvetica;fontSize=11;fontColor=#46495D;fillColor=#B2C9AB;rotation=30;" vertex="1" parent="OZoNvrv32u-H_DVouSun-3">
          <mxGeometry x="226" y="200" width="60" height="80" as="geometry" />
        </mxCell>
        <mxCell id="OZoNvrv32u-H_DVouSun-37" value="" style="edgeStyle=orthogonalEdgeStyle;shape=connector;curved=0;rounded=1;orthogonalLoop=1;jettySize=auto;html=1;labelBackgroundColor=default;strokeColor=#6666FF;align=center;verticalAlign=middle;fontFamily=Helvetica;fontSize=11;fontColor=#46495D;endArrow=classic;fillColor=#B2C9AB;" edge="1" parent="OZoNvrv32u-H_DVouSun-3" source="OZoNvrv32u-H_DVouSun-29" target="OZoNvrv32u-H_DVouSun-36">
          <mxGeometry relative="1" as="geometry" />
        </mxCell>
        <mxCell id="OZoNvrv32u-H_DVouSun-29" value="查询激活状态和可用额度,传递是否忽略有效期标识" style="whiteSpace=wrap;html=1;fillColor=#f8cecc;strokeColor=#b85450;rounded=0;" vertex="1" parent="OZoNvrv32u-H_DVouSun-3">
          <mxGeometry x="96" y="415" width="120" height="60" as="geometry" />
        </mxCell>
        <mxCell id="OZoNvrv32u-H_DVouSun-81" value="是" style="edgeStyle=orthogonalEdgeStyle;shape=connector;curved=0;rounded=1;orthogonalLoop=1;jettySize=auto;html=1;entryX=0.5;entryY=0;entryDx=0;entryDy=0;labelBackgroundColor=default;strokeColor=#6666FF;align=center;verticalAlign=middle;fontFamily=Helvetica;fontSize=11;fontColor=#46495D;endArrow=classic;fillColor=#B2C9AB;" edge="1" parent="OZoNvrv32u-H_DVouSun-3" source="OZoNvrv32u-H_DVouSun-36" target="OZoNvrv32u-H_DVouSun-49">
          <mxGeometry relative="1" as="geometry" />
        </mxCell>
        <mxCell id="OZoNvrv32u-H_DVouSun-36" value="授信状态是否为success" style="rhombus;whiteSpace=wrap;html=1;fillColor=#d5e8d4;strokeColor=#82b366;rounded=0;" vertex="1" parent="OZoNvrv32u-H_DVouSun-3">
          <mxGeometry x="182" y="520" width="116" height="80" as="geometry" />
        </mxCell>
        <mxCell id="OZoNvrv32u-H_DVouSun-56" value="否" style="edgeStyle=orthogonalEdgeStyle;shape=connector;curved=0;rounded=1;orthogonalLoop=1;jettySize=auto;html=1;labelBackgroundColor=default;strokeColor=#6666FF;align=center;verticalAlign=middle;fontFamily=Helvetica;fontSize=11;fontColor=#46495D;endArrow=classic;fillColor=#B2C9AB;" edge="1" parent="OZoNvrv32u-H_DVouSun-3" source="OZoNvrv32u-H_DVouSun-49" target="OZoNvrv32u-H_DVouSun-55">
          <mxGeometry relative="1" as="geometry" />
        </mxCell>
        <mxCell id="OZoNvrv32u-H_DVouSun-62" value="" style="edgeStyle=orthogonalEdgeStyle;shape=connector;curved=0;rounded=1;orthogonalLoop=1;jettySize=auto;html=1;labelBackgroundColor=default;strokeColor=#6666FF;align=center;verticalAlign=middle;fontFamily=Helvetica;fontSize=11;fontColor=#46495D;endArrow=classic;fillColor=#B2C9AB;" edge="1" parent="OZoNvrv32u-H_DVouSun-3" source="OZoNvrv32u-H_DVouSun-55" target="OZoNvrv32u-H_DVouSun-61">
          <mxGeometry relative="1" as="geometry" />
        </mxCell>
        <mxCell id="OZoNvrv32u-H_DVouSun-55" value="请求资金推荐" style="whiteSpace=wrap;html=1;fillColor=#d5e8d4;strokeColor=#82b366;rounded=0;" vertex="1" parent="OZoNvrv32u-H_DVouSun-3">
          <mxGeometry x="182" y="870" width="120" height="60" as="geometry" />
        </mxCell>
        <mxCell id="OZoNvrv32u-H_DVouSun-67" value="" style="edgeStyle=orthogonalEdgeStyle;shape=connector;curved=0;rounded=1;orthogonalLoop=1;jettySize=auto;html=1;labelBackgroundColor=default;strokeColor=#6666FF;align=center;verticalAlign=middle;fontFamily=Helvetica;fontSize=11;fontColor=#46495D;endArrow=classic;fillColor=#B2C9AB;" edge="1" parent="OZoNvrv32u-H_DVouSun-3" source="OZoNvrv32u-H_DVouSun-61" target="OZoNvrv32u-H_DVouSun-66">
          <mxGeometry relative="1" as="geometry" />
        </mxCell>
        <mxCell id="OZoNvrv32u-H_DVouSun-61" value="激活成功，资匹失败" style="whiteSpace=wrap;html=1;fillColor=#d5e8d4;strokeColor=#82b366;rounded=0;" vertex="1" parent="OZoNvrv32u-H_DVouSun-3">
          <mxGeometry x="182" y="980" width="120" height="60" as="geometry" />
        </mxCell>
        <mxCell id="OZoNvrv32u-H_DVouSun-72" value="" style="edgeStyle=orthogonalEdgeStyle;shape=connector;curved=0;rounded=1;orthogonalLoop=1;jettySize=auto;html=1;labelBackgroundColor=default;strokeColor=#6666FF;align=center;verticalAlign=middle;fontFamily=Helvetica;fontSize=11;fontColor=#46495D;endArrow=classic;fillColor=#B2C9AB;" edge="1" parent="OZoNvrv32u-H_DVouSun-3" source="OZoNvrv32u-H_DVouSun-66" target="OZoNvrv32u-H_DVouSun-71">
          <mxGeometry relative="1" as="geometry" />
        </mxCell>
        <mxCell id="OZoNvrv32u-H_DVouSun-66" value="激活成功，资匹失败，超过了3天" style="whiteSpace=wrap;html=1;fillColor=#d5e8d4;strokeColor=#82b366;rounded=0;" vertex="1" parent="OZoNvrv32u-H_DVouSun-3">
          <mxGeometry x="182" y="1100" width="120" height="60" as="geometry" />
        </mxCell>
        <mxCell id="OZoNvrv32u-H_DVouSun-74" value="" style="edgeStyle=orthogonalEdgeStyle;shape=connector;curved=0;rounded=1;orthogonalLoop=1;jettySize=auto;html=1;labelBackgroundColor=default;strokeColor=#6666FF;align=center;verticalAlign=middle;fontFamily=Helvetica;fontSize=11;fontColor=#46495D;endArrow=classic;fillColor=#B2C9AB;" edge="1" parent="OZoNvrv32u-H_DVouSun-3" source="OZoNvrv32u-H_DVouSun-71" target="OZoNvrv32u-H_DVouSun-73">
          <mxGeometry relative="1" as="geometry" />
        </mxCell>
        <mxCell id="OZoNvrv32u-H_DVouSun-71" value="API渠道控额策略" style="whiteSpace=wrap;html=1;fillColor=#d5e8d4;strokeColor=#82b366;rounded=0;" vertex="1" parent="OZoNvrv32u-H_DVouSun-3">
          <mxGeometry x="182" y="1210" width="120" height="60" as="geometry" />
        </mxCell>
        <mxCell id="OZoNvrv32u-H_DVouSun-78" value="" style="edgeStyle=orthogonalEdgeStyle;shape=connector;curved=0;rounded=1;orthogonalLoop=1;jettySize=auto;html=1;labelBackgroundColor=default;strokeColor=#6666FF;align=center;verticalAlign=middle;fontFamily=Helvetica;fontSize=11;fontColor=#46495D;endArrow=classic;fillColor=#B2C9AB;" edge="1" parent="OZoNvrv32u-H_DVouSun-3" source="OZoNvrv32u-H_DVouSun-73" target="OZoNvrv32u-H_DVouSun-77">
          <mxGeometry relative="1" as="geometry" />
        </mxCell>
        <mxCell id="OZoNvrv32u-H_DVouSun-73" value="控额后额度小于1000" style="whiteSpace=wrap;html=1;fillColor=#d5e8d4;strokeColor=#82b366;rounded=0;" vertex="1" parent="OZoNvrv32u-H_DVouSun-3">
          <mxGeometry x="182" y="1310" width="120" height="60" as="geometry" />
        </mxCell>
        <mxCell id="OZoNvrv32u-H_DVouSun-77" value="组装授信成功的返回数据" style="whiteSpace=wrap;html=1;fillColor=#d5e8d4;strokeColor=#82b366;rounded=0;" vertex="1" parent="OZoNvrv32u-H_DVouSun-3">
          <mxGeometry x="182" y="1420" width="120" height="60" as="geometry" />
        </mxCell>
        <mxCell id="OZoNvrv32u-H_DVouSun-52" value="返回授信拒绝" style="whiteSpace=wrap;html=1;fillColor=#d5e8d4;strokeColor=#82b366;rounded=0;" vertex="1" parent="OZoNvrv32u-H_DVouSun-3">
          <mxGeometry x="-154" y="710" width="120" height="60" as="geometry" />
        </mxCell>
        <mxCell id="OZoNvrv32u-H_DVouSun-49" value="可用额度是否&amp;lt;1000" style="rhombus;whiteSpace=wrap;html=1;fillColor=#d5e8d4;strokeColor=#82b366;rounded=0;" vertex="1" parent="OZoNvrv32u-H_DVouSun-3">
          <mxGeometry x="171" y="700" width="142" height="80" as="geometry" />
        </mxCell>
        <mxCell id="OZoNvrv32u-H_DVouSun-53" value="" style="edgeStyle=orthogonalEdgeStyle;shape=connector;curved=0;rounded=1;orthogonalLoop=1;jettySize=auto;html=1;labelBackgroundColor=default;strokeColor=#6666FF;align=center;verticalAlign=middle;fontFamily=Helvetica;fontSize=11;fontColor=#46495D;endArrow=classic;fillColor=#B2C9AB;" edge="1" parent="OZoNvrv32u-H_DVouSun-3" source="OZoNvrv32u-H_DVouSun-49" target="OZoNvrv32u-H_DVouSun-52">
          <mxGeometry relative="1" as="geometry" />
        </mxCell>
        <mxCell id="OZoNvrv32u-H_DVouSun-54" value="是" style="edgeLabel;html=1;align=center;verticalAlign=middle;resizable=0;points=[];fontSize=11;fontFamily=Helvetica;fontColor=#46495D;" vertex="1" connectable="0" parent="OZoNvrv32u-H_DVouSun-53">
          <mxGeometry x="0.1728" y="1" relative="1" as="geometry">
            <mxPoint as="offset" />
          </mxGeometry>
        </mxCell>
        <mxCell id="OZoNvrv32u-H_DVouSun-4" value="风控服务" style="swimlane;startSize=20;html=1;labelBackgroundColor=none;fillColor=#B2C9AB;strokeColor=#6666FF;fontColor=#46495D;" vertex="1" parent="OZoNvrv32u-H_DVouSun-1">
          <mxGeometry x="682" y="20" width="180" height="1510" as="geometry" />
        </mxCell>
        <mxCell id="OZoNvrv32u-H_DVouSun-31" value="新查询激活状态接口" style="whiteSpace=wrap;html=1;fillColor=#B2C9AB;strokeColor=#6666FF;fontColor=#46495D;rounded=0;" vertex="1" parent="OZoNvrv32u-H_DVouSun-4">
          <mxGeometry x="30" y="415" width="120" height="60" as="geometry" />
        </mxCell>
        <mxCell id="OZoNvrv32u-H_DVouSun-57" value="资金系统" style="swimlane;startSize=20;html=1;labelBackgroundColor=none;fillColor=#B2C9AB;strokeColor=#6666FF;fontColor=#46495D;" vertex="1" parent="OZoNvrv32u-H_DVouSun-1">
          <mxGeometry x="862" y="20" width="180" height="1510" as="geometry" />
        </mxCell>
        <mxCell id="OZoNvrv32u-H_DVouSun-58" value="资金推荐接口" style="whiteSpace=wrap;html=1;fillColor=#d5e8d4;strokeColor=#82b366;rounded=0;" vertex="1" parent="OZoNvrv32u-H_DVouSun-57">
          <mxGeometry x="30" y="870" width="120" height="60" as="geometry" />
        </mxCell>
        <mxCell id="OZoNvrv32u-H_DVouSun-10" value="" style="edgeStyle=orthogonalEdgeStyle;shape=connector;curved=0;rounded=1;orthogonalLoop=1;jettySize=auto;html=1;labelBackgroundColor=default;strokeColor=#6666FF;align=center;verticalAlign=middle;fontFamily=Helvetica;fontSize=11;fontColor=#46495D;endArrow=classic;fillColor=#B2C9AB;" edge="1" parent="OZoNvrv32u-H_DVouSun-1" source="OZoNvrv32u-H_DVouSun-6" target="OZoNvrv32u-H_DVouSun-9">
          <mxGeometry relative="1" as="geometry">
            <Array as="points">
              <mxPoint x="206" y="220" />
              <mxPoint x="206" y="100" />
            </Array>
          </mxGeometry>
        </mxCell>
        <mxCell id="OZoNvrv32u-H_DVouSun-32" value="" style="edgeStyle=orthogonalEdgeStyle;shape=connector;curved=0;rounded=1;orthogonalLoop=1;jettySize=auto;html=1;labelBackgroundColor=default;strokeColor=#6666FF;align=center;verticalAlign=middle;fontFamily=Helvetica;fontSize=11;fontColor=#46495D;endArrow=classic;fillColor=#B2C9AB;" edge="1" parent="OZoNvrv32u-H_DVouSun-1" source="OZoNvrv32u-H_DVouSun-29" target="OZoNvrv32u-H_DVouSun-31">
          <mxGeometry relative="1" as="geometry" />
        </mxCell>
        <mxCell id="OZoNvrv32u-H_DVouSun-33" value="&lt;article data-identifier-application__slash__x-doc-key=&quot;4jKqmVR7B19NOw19&quot; data-identifier-application__slash__x-cangjie-fragment=&quot;JTdCJTIya2xhc3MlMjIlM0ElMjJkb2N1bWVudCUyMiUyQyUyMmRhdGElMjIlM0ElN0IlN0QlMkMlMjJub2RlcyUyMiUzQSU1QiU3QiUyMmtsYXNzJTIyJTNBJTIyYmxvY2slMjIlMkMlMjJ0eXBlJTIyJTNBJTIycGFyYWdyYXBoJTIyJTJDJTIyZGF0YSUyMiUzQSU3QiUyMnV1aWQlMjIlM0ElMjJscmhqYjE4MDcwd2w4cHY1b2g5JTIyJTdEJTJDJTIybm9kZXMlMjIlM0ElNUIlN0IlMjJrbGFzcyUyMiUzQSUyMnRleHQlMjIlMkMlMjJsZWF2ZXMlMjIlM0ElNUIlN0IlMjJrbGFzcyUyMiUzQSUyMmxlYWYlMjIlMkMlMjJ0ZXh0JTIyJTNBJTIyY3JlZGl0JTJGYWdndGVtZW50LWluZm8lMjIlMkMlMjJtYXJrcyUyMiUzQSU1QiU1RCU3RCU1RCU3RCU1RCU3RCU1RCU3RA==&quot; data-clipboard-cangjie=&quot;[&amp;quot;root&amp;quot;,{},[&amp;quot;p&amp;quot;,{&amp;quot;uuid&amp;quot;:&amp;quot;lrhjb18070wl8pv5oh9&amp;quot;},[&amp;quot;span&amp;quot;,{&amp;quot;data-type&amp;quot;:&amp;quot;text&amp;quot;},[&amp;quot;span&amp;quot;,{&amp;quot;data-type&amp;quot;:&amp;quot;leaf&amp;quot;},&amp;quot;credit/aggtement-info&amp;quot;]]]]&quot; class=&quot;4ever-article&quot;&gt;&lt;p style=&quot;text-align: left; margin-left: 0px; margin-top: 0px; margin-bottom: 0px;&quot;&gt;credit/aggtement-info&lt;/p&gt;&lt;/article&gt;" style="edgeLabel;html=1;align=center;verticalAlign=middle;resizable=0;points=[];fontSize=11;fontFamily=Helvetica;fontColor=#46495D;" vertex="1" connectable="0" parent="OZoNvrv32u-H_DVouSun-32">
          <mxGeometry x="0.0786" relative="1" as="geometry">
            <mxPoint x="-2" as="offset" />
          </mxGeometry>
        </mxCell>
        <mxCell id="OZoNvrv32u-H_DVouSun-43" value="" style="edgeStyle=orthogonalEdgeStyle;shape=connector;curved=0;rounded=1;orthogonalLoop=1;jettySize=auto;html=1;labelBackgroundColor=default;strokeColor=#6666FF;align=center;verticalAlign=middle;fontFamily=Helvetica;fontSize=11;fontColor=#46495D;endArrow=classic;fillColor=#B2C9AB;" edge="1" parent="OZoNvrv32u-H_DVouSun-1" source="OZoNvrv32u-H_DVouSun-36" target="OZoNvrv32u-H_DVouSun-42">
          <mxGeometry relative="1" as="geometry" />
        </mxCell>
        <mxCell id="OZoNvrv32u-H_DVouSun-45" value="否，授信过期、失败、授信中" style="edgeLabel;html=1;align=center;verticalAlign=middle;resizable=0;points=[];fontSize=11;fontFamily=Helvetica;fontColor=#46495D;" vertex="1" connectable="0" parent="OZoNvrv32u-H_DVouSun-43">
          <mxGeometry x="-0.3191" y="2" relative="1" as="geometry">
            <mxPoint x="-25" y="-2" as="offset" />
          </mxGeometry>
        </mxCell>
        <mxCell id="OZoNvrv32u-H_DVouSun-24" value="true" style="edgeStyle=orthogonalEdgeStyle;shape=connector;curved=0;rounded=1;orthogonalLoop=1;jettySize=auto;html=1;entryX=1;entryY=0.5;entryDx=0;entryDy=0;labelBackgroundColor=default;strokeColor=#6666FF;align=center;verticalAlign=middle;fontFamily=Helvetica;fontSize=11;fontColor=#46495D;endArrow=classic;fillColor=#B2C9AB;" edge="1" parent="OZoNvrv32u-H_DVouSun-1" source="OZoNvrv32u-H_DVouSun-13" target="OZoNvrv32u-H_DVouSun-20">
          <mxGeometry relative="1" as="geometry" />
        </mxCell>
        <mxCell id="OZoNvrv32u-H_DVouSun-59" value="" style="edgeStyle=orthogonalEdgeStyle;shape=connector;curved=0;rounded=1;orthogonalLoop=1;jettySize=auto;html=1;labelBackgroundColor=default;strokeColor=#6666FF;align=center;verticalAlign=middle;fontFamily=Helvetica;fontSize=11;fontColor=#46495D;endArrow=classic;fillColor=#B2C9AB;" edge="1" parent="OZoNvrv32u-H_DVouSun-1" source="OZoNvrv32u-H_DVouSun-55" target="OZoNvrv32u-H_DVouSun-58">
          <mxGeometry relative="1" as="geometry" />
        </mxCell>
        <mxCell id="OZoNvrv32u-H_DVouSun-60" value="fund-recommend" style="edgeLabel;align=center;verticalAlign=middle;resizable=0;points=[];fontSize=11;fontFamily=Helvetica;fontColor=#46495D;" vertex="1" connectable="0" parent="OZoNvrv32u-H_DVouSun-59">
          <mxGeometry x="-0.0757" y="2" relative="1" as="geometry">
            <mxPoint x="-56" as="offset" />
          </mxGeometry>
        </mxCell>
        <mxCell id="OZoNvrv32u-H_DVouSun-65" value="" style="edgeStyle=orthogonalEdgeStyle;shape=connector;curved=0;rounded=1;orthogonalLoop=1;jettySize=auto;html=1;labelBackgroundColor=default;strokeColor=#6666FF;align=center;verticalAlign=middle;fontFamily=Helvetica;fontSize=11;fontColor=#46495D;endArrow=classic;fillColor=#B2C9AB;" edge="1" parent="OZoNvrv32u-H_DVouSun-1" source="OZoNvrv32u-H_DVouSun-61" target="OZoNvrv32u-H_DVouSun-64">
          <mxGeometry relative="1" as="geometry" />
        </mxCell>
        <mxCell id="OZoNvrv32u-H_DVouSun-70" value="" style="edgeStyle=orthogonalEdgeStyle;shape=connector;curved=0;rounded=1;orthogonalLoop=1;jettySize=auto;html=1;labelBackgroundColor=default;strokeColor=#6666FF;align=center;verticalAlign=middle;fontFamily=Helvetica;fontSize=11;fontColor=#46495D;endArrow=classic;fillColor=#B2C9AB;" edge="1" parent="OZoNvrv32u-H_DVouSun-1" source="OZoNvrv32u-H_DVouSun-66" target="OZoNvrv32u-H_DVouSun-69">
          <mxGeometry relative="1" as="geometry" />
        </mxCell>
        <mxCell id="OZoNvrv32u-H_DVouSun-76" value="" style="edgeStyle=orthogonalEdgeStyle;shape=connector;curved=0;rounded=1;orthogonalLoop=1;jettySize=auto;html=1;labelBackgroundColor=default;strokeColor=#6666FF;align=center;verticalAlign=middle;fontFamily=Helvetica;fontSize=11;fontColor=#46495D;endArrow=classic;fillColor=#B2C9AB;" edge="1" parent="OZoNvrv32u-H_DVouSun-1" source="OZoNvrv32u-H_DVouSun-73" target="OZoNvrv32u-H_DVouSun-75">
          <mxGeometry relative="1" as="geometry" />
        </mxCell>
        <mxCell id="OZoNvrv32u-H_DVouSun-80" value="" style="edgeStyle=orthogonalEdgeStyle;shape=connector;curved=0;rounded=1;orthogonalLoop=1;jettySize=auto;html=1;labelBackgroundColor=default;strokeColor=#6666FF;align=center;verticalAlign=middle;fontFamily=Helvetica;fontSize=11;fontColor=#46495D;endArrow=classic;fillColor=#B2C9AB;" edge="1" parent="OZoNvrv32u-H_DVouSun-1" source="OZoNvrv32u-H_DVouSun-77" target="OZoNvrv32u-H_DVouSun-79">
          <mxGeometry relative="1" as="geometry" />
        </mxCell>
      </root>
    </mxGraphModel>
  </diagram>
</mxfile>
